<svg xmlns="http://www.w3.org/2000/svg" width="12" height="10.28" viewBox="0 0 12 10.28">
  <defs>
    <style>
      .cls-1 {
        fill: #252525;
        fill-rule: evenodd;
      }
    </style>
  </defs>
  <path id="Com" class="cls-1" d="M475.429,4113.86a0.817,0.817,0,0,0-.607.25,0.855,0.855,0,0,0,0,1.21,0.861,0.861,0,0,0,1.213,0,0.855,0.855,0,0,0,0-1.21A0.817,0.817,0,0,0,475.429,4113.86Zm2.571,0a0.814,0.814,0,0,0-.606.25,0.855,0.855,0,0,0,0,1.21,0.859,0.859,0,0,0,1.212,0,0.855,0.855,0,0,0,0-1.21A0.815,0.815,0,0,0,478,4113.86Zm2.571,0a0.817,0.817,0,0,0-.606.25,0.855,0.855,0,0,0,0,1.21,0.859,0.859,0,0,0,1.212,0,0.852,0.852,0,0,0,0-1.21A0.814,0.814,0,0,0,480.571,4113.86Zm1.872-.85a2.426,2.426,0,0,1,0,3.41,4.776,4.776,0,0,1-1.888,1.26,6.95,6.95,0,0,1-2.555.46c-0.272,0-.563-0.02-0.871-0.05l-0.381-.04-0.288.25a6.41,6.41,0,0,1-1.842,1.15,4.877,4.877,0,0,0,.469-1.15l0.181-.65-0.583-.33a4.013,4.013,0,0,1-1.349-1.18,2.439,2.439,0,0,1-.479-1.43,2.5,2.5,0,0,1,.7-1.7,4.776,4.776,0,0,1,1.888-1.26,7.326,7.326,0,0,1,5.11,0A4.776,4.776,0,0,1,482.443,4113.01Zm1.082,0.04a4.526,4.526,0,0,0-1.28-1.37,6.466,6.466,0,0,0-1.915-.91,8.154,8.154,0,0,0-4.66,0,6.472,6.472,0,0,0-1.916.91,4.522,4.522,0,0,0-1.279,1.37,3.179,3.179,0,0,0-.475,1.66,3.285,3.285,0,0,0,.606,1.89,4.986,4.986,0,0,0,1.657,1.47,4.123,4.123,0,0,1-.174.51c-0.067.16-.127,0.29-0.181,0.39a2.034,2.034,0,0,1-.217.34,2.825,2.825,0,0,1-.208.27c-0.047.05-.124,0.14-0.231,0.25s-0.176.2-.207,0.23l-0.054.06c-0.027.04-.043,0.05-0.047,0.06a0.413,0.413,0,0,1-.04.06,0.152,0.152,0,0,0-.03.07,0.185,0.185,0,0,1-.014.06,0.081,0.081,0,0,0,0,.08v0.01a0.293,0.293,0,0,0,.107.18,0.253,0.253,0,0,0,.181.07h0.033a4.743,4.743,0,0,0,.764-0.14,7.346,7.346,0,0,0,3.08-1.62c0.335,0.03.658,0.05,0.971,0.05a7.811,7.811,0,0,0,3.013-.57,5.389,5.389,0,0,0,2.183-1.56,3.354,3.354,0,0,0,.8-2.16A3.188,3.188,0,0,0,483.525,4113.05Z" transform="translate(-472 -4110.44)"/>
</svg>
